<?xml version="1.0" standalone="no"?>
<!DOCTYPE svg PUBLIC "-//W3C//DTD SVG 20010904//EN"
 "http://www.w3.org/TR/2001/REC-SVG-20010904/DTD/svg10.dtd">
<svg version="1.0" xmlns="http://www.w3.org/2000/svg"
 width="650.000000pt" height="650.000000pt" viewBox="0 0 650.000000 650.000000"
 preserveAspectRatio="xMidYMid meet">
<metadata>
Created by potrace 1.11, written by Peter Selinger 2001-2013
</metadata>
<g transform="translate(0.000000,650.000000) scale(0.100000,-0.100000)"
fill="#000000" stroke="none">
<path d="M3195 6086 c-88 -28 -153 -85 -195 -171 -35 -72 -35 -189 -1 -260 31
-63 98 -130 151 -151 l40 -16 0 -418 c0 -326 -3 -419 -12 -422 -7 -2 -424 -4
-925 -3 l-913 0 0 -220 c-1 -121 -2 -302 -3 -402 -1 -99 2 -179 6 -176 5 3
865 5 1913 5 l1904 0 -2 396 -3 397 -242 0 c-134 0 -243 4 -243 8 0 5 -5 5
-11 1 -14 -8 -169 -12 -169 -4 0 3 -9 6 -20 6 -11 0 -20 -3 -20 -6 0 -4 -22
-4 -50 0 -27 4 -50 3 -50 0 0 -4 -18 -4 -40 0 -22 4 -40 5 -40 1 0 -8 -68 -6
-76 2 -4 4 -15 2 -25 -4 -11 -5 -19 -6 -19 -1 0 4 -9 8 -20 8 -11 0 -20 -4
-20 -8 0 -4 -10 -4 -22 0 -13 4 -61 6 -108 5 -159 -6 -575 -9 -587 -5 -9 3
-12 102 -12 421 l0 417 38 16 c52 23 122 93 151 153 20 40 25 65 25 130 0 68
-4 88 -29 137 -36 72 -93 125 -162 153 -62 25 -151 30 -209 11z"/>
<path d="M1339 3785 c0 0 -2 -261 -3 -580 -2 -405 1 -584 8 -594 7 -10 7 -13
1 -9 -8 5 -12 -327 -14 -1088 l-2 -1094 33 -1 c169 -4 208 -3 208 4 0 5 5 5
12 1 16 -10 748 -12 754 -2 3 4 5 243 5 530 l-1 523 158 -1 c86 -1 187 -3 223
-3 l67 -1 1 -296 c1 -163 4 -301 7 -305 3 -5 0 -9 -6 -9 -6 0 -9 -4 -5 -10 10
-17 11 -320 0 -324 -7 -3 -7 -5 0 -5 6 -1 9 -25 8 -56 l-1 -55 456 2 456 3 1
530 0 530 213 0 c138 1 212 -3 213 -10 4 -32 -2 -809 -7 -816 -3 -5 1 -9 8 -9
8 0 9 -3 3 -8 -5 -4 -10 -20 -10 -37 0 -16 5 -33 10 -37 7 -5 7 -8 0 -8 -9 0
-10 -33 -6 -122 1 -17 33 -18 516 -18 l515 0 0 426 c0 452 1 443 -48 458 -12
4 -22 12 -22 18 0 5 -7 8 -15 4 -9 -3 -15 0 -15 9 0 8 -7 15 -15 15 -8 0 -15
6 -15 14 0 7 -9 16 -20 19 -14 4 -18 10 -13 23 4 12 3 15 -5 10 -13 -8 -33 33
-24 48 3 5 -3 6 -14 2 -10 -4 -15 -4 -11 0 4 4 2 13 -3 19 -6 7 -11 25 -12 41
-1 16 -5 34 -9 39 -14 19 -21 117 -8 110 8 -5 7 -1 -1 15 -7 12 -8 25 -4 29 5
3 9 15 8 26 0 11 3 28 8 37 8 17 0 23 -24 19 -5 0 -8 4 -8 10 0 8 -5 7 -15 -1
-13 -11 -14 -10 -9 4 5 12 2 15 -10 10 -9 -3 -16 -2 -16 4 0 5 -10 12 -23 16
-21 5 -36 15 -84 56 -7 6 -13 8 -13 5 0 -4 -7 0 -15 9 -8 8 -15 23 -15 33 0
15 -2 16 -10 3 -8 -13 -10 -12 -10 4 0 12 -5 16 -14 13 -10 -4 -14 0 -11 14 2
12 -2 19 -11 19 -8 0 -12 4 -9 10 3 5 1 10 -6 10 -7 0 -10 3 -7 6 4 3 -3 15
-14 26 -11 11 -17 26 -14 34 3 9 1 12 -4 9 -6 -3 -10 3 -10 14 0 12 -4 21 -10
21 -5 0 -9 3 -9 8 4 25 -2 42 -13 36 -9 -5 -9 -2 1 9 9 12 10 17 2 17 -7 0
-10 4 -7 9 4 5 0 12 -6 14 -10 4 -10 6 0 6 10 1 10 6 2 21 -6 11 -7 20 -3 20
4 0 1 5 -7 10 -10 6 -11 10 -2 10 14 0 12 21 -3 32 -6 5 -5 8 2 8 13 0 13 34
0 46 -10 11 -8 24 4 24 5 0 7 -5 3 -12 -4 -6 -3 -8 4 -5 5 4 8 16 5 27 -3 11
1 28 8 37 12 15 12 16 -6 10 -17 -6 -18 -5 -4 5 9 7 15 21 13 31 -1 9 2 17 7
17 6 0 8 4 4 9 -3 5 -1 12 5 16 6 4 8 11 5 16 -4 5 -1 9 5 9 6 0 8 5 5 10 -3
6 -2 10 3 10 5 0 13 8 16 18 13 34 37 72 47 72 5 0 9 7 9 15 0 8 9 19 20 25
11 6 20 17 20 25 0 7 5 17 12 21 7 5 9 2 3 -7 -4 -8 3 -3 16 11 13 14 20 19
15 10 -5 -8 3 -3 17 12 14 15 28 24 31 21 3 -4 6 -1 6 6 0 8 7 11 15 7 8 -3
14 0 12 6 -1 7 3 12 10 13 7 0 18 6 24 13 11 10 10 12 -1 12 -13 0 -13 2 0 10
8 5 10 10 4 10 -6 0 -10 10 -10 23 1 12 -5 30 -13 40 -14 16 -13 17 5 11 15
-6 17 -4 7 6 -7 8 -9 20 -4 29 4 9 7 31 7 49 -1 17 3 32 8 32 5 0 7 3 3 6 -3
4 0 19 9 35 8 16 15 31 15 34 4 27 13 44 22 38 6 -4 8 0 4 11 -4 10 -3 15 3
11 6 -3 10 -1 10 4 0 15 77 91 84 84 3 -4 6 -1 6 5 0 6 9 14 20 17 11 4 18 10
15 14 -2 5 5 8 18 7 12 0 21 4 20 9 -1 6 13 11 30 12 17 1 34 8 39 15 4 7 7
105 5 217 l-2 205 -1908 0 c-1049 1 -1907 1 -1908 1z m1253 -692 c65 -30 133
-95 165 -162 24 -48 28 -68 28 -141 0 -72 -4 -93 -27 -141 -34 -68 -87 -122
-153 -157 -44 -24 -62 -27 -145 -27 -84 0 -101 3 -146 27 -64 34 -118 88 -152
152 -24 45 -27 62 -27 146 0 84 3 101 27 145 37 69 104 131 174 161 49 21 71
24 134 21 47 -2 92 -11 122 -24z m1624 -6 c87 -44 159 -135 179 -225 49 -230
-155 -442 -382 -396 -79 16 -129 42 -179 96 -166 173 -98 459 128 540 74 26
186 20 254 -15z"/>
</g>
</svg>
